<mxfile host="app.diagrams.net" modified="2023-03-02T08:17:04.094Z" agent="5.0 (Windows NT 10.0; Win64; x64) AppleWebKit/537.36 (KHTML, like Gecko) Chrome/110.0.0.0 Safari/537.36" etag="gIMkCl8wgSRfxhPv64Xa" version="20.8.23" type="github">
  <diagram id="C5RBs43oDa-KdzZeNtuy" name="Page-1">
    <mxGraphModel dx="3676" dy="630" grid="1" gridSize="10" guides="1" tooltips="1" connect="1" arrows="1" fold="1" page="1" pageScale="1" pageWidth="827" pageHeight="1169" math="0" shadow="0">
      <root>
        <mxCell id="WIyWlLk6GJQsqaUBKTNV-0" />
        <mxCell id="WIyWlLk6GJQsqaUBKTNV-1" parent="WIyWlLk6GJQsqaUBKTNV-0" />
        <mxCell id="NYESxSJqRWlcTfdeuYpu-14" value="Board" style="swimlane;fontStyle=1;align=center;verticalAlign=top;childLayout=stackLayout;horizontal=1;startSize=26;horizontalStack=0;resizeParent=1;resizeParentMax=0;resizeLast=0;collapsible=1;marginBottom=0;fontFamily=Verdana;fontSize=14;" vertex="1" parent="WIyWlLk6GJQsqaUBKTNV-1">
          <mxGeometry x="310" y="40" width="510" height="714" as="geometry" />
        </mxCell>
        <mxCell id="NYESxSJqRWlcTfdeuYpu-58" value="+ EMPTY_CELL_SYMBOL : char = &#39; &#39; {readOnly}" style="text;strokeColor=none;fillColor=none;align=left;verticalAlign=top;spacingLeft=4;spacingRight=4;overflow=hidden;rotatable=0;points=[[0,0.5],[1,0.5]];portConstraint=eastwest;fontFamily=Verdana;fontSize=14;" vertex="1" parent="NYESxSJqRWlcTfdeuYpu-14">
          <mxGeometry y="26" width="510" height="26" as="geometry" />
        </mxCell>
        <mxCell id="NYESxSJqRWlcTfdeuYpu-59" value="+ BLOCKED_CELL_SYMBOL : char = &#39;!&#39; {readOnly}" style="text;strokeColor=none;fillColor=none;align=left;verticalAlign=top;spacingLeft=4;spacingRight=4;overflow=hidden;rotatable=0;points=[[0,0.5],[1,0.5]];portConstraint=eastwest;fontFamily=Verdana;fontSize=14;" vertex="1" parent="NYESxSJqRWlcTfdeuYpu-14">
          <mxGeometry y="52" width="510" height="26" as="geometry" />
        </mxCell>
        <mxCell id="NYESxSJqRWlcTfdeuYpu-15" value="- dimension : Integer" style="text;strokeColor=none;fillColor=none;align=left;verticalAlign=top;spacingLeft=4;spacingRight=4;overflow=hidden;rotatable=0;points=[[0,0.5],[1,0.5]];portConstraint=eastwest;fontFamily=Verdana;fontSize=14;" vertex="1" parent="NYESxSJqRWlcTfdeuYpu-14">
          <mxGeometry y="78" width="510" height="26" as="geometry" />
        </mxCell>
        <mxCell id="NYESxSJqRWlcTfdeuYpu-33" value="- blockedCellCount : Integer" style="text;strokeColor=none;fillColor=none;align=left;verticalAlign=top;spacingLeft=4;spacingRight=4;overflow=hidden;rotatable=0;points=[[0,0.5],[1,0.5]];portConstraint=eastwest;fontFamily=Verdana;fontSize=14;" vertex="1" parent="NYESxSJqRWlcTfdeuYpu-14">
          <mxGeometry y="104" width="510" height="26" as="geometry" />
        </mxCell>
        <mxCell id="NYESxSJqRWlcTfdeuYpu-35" value="- cells : char[][]" style="text;strokeColor=none;fillColor=none;align=left;verticalAlign=top;spacingLeft=4;spacingRight=4;overflow=hidden;rotatable=0;points=[[0,0.5],[1,0.5]];portConstraint=eastwest;fontFamily=Verdana;fontSize=14;" vertex="1" parent="NYESxSJqRWlcTfdeuYpu-14">
          <mxGeometry y="130" width="510" height="26" as="geometry" />
        </mxCell>
        <mxCell id="NYESxSJqRWlcTfdeuYpu-36" value="- colWiseSymbolCount : Map&lt;Integer, Integer&gt;" style="text;strokeColor=none;fillColor=none;align=left;verticalAlign=top;spacingLeft=4;spacingRight=4;overflow=hidden;rotatable=0;points=[[0,0.5],[1,0.5]];portConstraint=eastwest;fontFamily=Verdana;fontSize=14;" vertex="1" parent="NYESxSJqRWlcTfdeuYpu-14">
          <mxGeometry y="156" width="510" height="26" as="geometry" />
        </mxCell>
        <mxCell id="NYESxSJqRWlcTfdeuYpu-37" value="- rowWiseSymbolCount : Map&lt;Integer, Integer&gt;" style="text;strokeColor=none;fillColor=none;align=left;verticalAlign=top;spacingLeft=4;spacingRight=4;overflow=hidden;rotatable=0;points=[[0,0.5],[1,0.5]];portConstraint=eastwest;fontFamily=Verdana;fontSize=14;" vertex="1" parent="NYESxSJqRWlcTfdeuYpu-14">
          <mxGeometry y="182" width="510" height="26" as="geometry" />
        </mxCell>
        <mxCell id="NYESxSJqRWlcTfdeuYpu-38" value="- posDiagWiseSymbolCount : Map&lt;Integer, Integer&gt;" style="text;strokeColor=none;fillColor=none;align=left;verticalAlign=top;spacingLeft=4;spacingRight=4;overflow=hidden;rotatable=0;points=[[0,0.5],[1,0.5]];portConstraint=eastwest;fontFamily=Verdana;fontSize=14;" vertex="1" parent="NYESxSJqRWlcTfdeuYpu-14">
          <mxGeometry y="208" width="510" height="26" as="geometry" />
        </mxCell>
        <mxCell id="NYESxSJqRWlcTfdeuYpu-34" value="- negDiagWiseSymbolCount : Map&lt;Integer, Integer&gt;" style="text;strokeColor=none;fillColor=none;align=left;verticalAlign=top;spacingLeft=4;spacingRight=4;overflow=hidden;rotatable=0;points=[[0,0.5],[1,0.5]];portConstraint=eastwest;fontFamily=Verdana;fontSize=14;" vertex="1" parent="NYESxSJqRWlcTfdeuYpu-14">
          <mxGeometry y="234" width="510" height="26" as="geometry" />
        </mxCell>
        <mxCell id="NYESxSJqRWlcTfdeuYpu-16" value="" style="line;strokeWidth=1;fillColor=none;align=left;verticalAlign=middle;spacingTop=-1;spacingLeft=3;spacingRight=3;rotatable=0;labelPosition=right;points=[];portConstraint=eastwest;strokeColor=inherit;fontFamily=Verdana;fontSize=14;" vertex="1" parent="NYESxSJqRWlcTfdeuYpu-14">
          <mxGeometry y="260" width="510" height="8" as="geometry" />
        </mxCell>
        <mxCell id="NYESxSJqRWlcTfdeuYpu-28" value="+ getCells() : Integer[][]" style="text;strokeColor=none;fillColor=none;align=left;verticalAlign=top;spacingLeft=4;spacingRight=4;overflow=hidden;rotatable=0;points=[[0,0.5],[1,0.5]];portConstraint=eastwest;fontFamily=Verdana;fontSize=14;" vertex="1" parent="NYESxSJqRWlcTfdeuYpu-14">
          <mxGeometry y="268" width="510" height="26" as="geometry" />
        </mxCell>
        <mxCell id="NYESxSJqRWlcTfdeuYpu-24" value="+ getDimension : Integer" style="text;strokeColor=none;fillColor=none;align=left;verticalAlign=top;spacingLeft=4;spacingRight=4;overflow=hidden;rotatable=0;points=[[0,0.5],[1,0.5]];portConstraint=eastwest;fontFamily=Verdana;fontSize=14;" vertex="1" parent="NYESxSJqRWlcTfdeuYpu-14">
          <mxGeometry y="294" width="510" height="26" as="geometry" />
        </mxCell>
        <mxCell id="NYESxSJqRWlcTfdeuYpu-32" value="+ setDimension(dimension : Integer) : void" style="text;strokeColor=none;fillColor=none;align=left;verticalAlign=top;spacingLeft=4;spacingRight=4;overflow=hidden;rotatable=0;points=[[0,0.5],[1,0.5]];portConstraint=eastwest;fontFamily=Verdana;fontSize=14;" vertex="1" parent="NYESxSJqRWlcTfdeuYpu-14">
          <mxGeometry y="320" width="510" height="26" as="geometry" />
        </mxCell>
        <mxCell id="NYESxSJqRWlcTfdeuYpu-26" value="- getBlockedCellCount : Integer" style="text;strokeColor=none;fillColor=none;align=left;verticalAlign=top;spacingLeft=4;spacingRight=4;overflow=hidden;rotatable=0;points=[[0,0.5],[1,0.5]];portConstraint=eastwest;fontFamily=Verdana;fontSize=14;" vertex="1" parent="NYESxSJqRWlcTfdeuYpu-14">
          <mxGeometry y="346" width="510" height="26" as="geometry" />
        </mxCell>
        <mxCell id="NYESxSJqRWlcTfdeuYpu-40" value="+ getEmptyCellCount() : void" style="text;strokeColor=none;fillColor=none;align=left;verticalAlign=top;spacingLeft=4;spacingRight=4;overflow=hidden;rotatable=0;points=[[0,0.5],[1,0.5]];portConstraint=eastwest;fontFamily=Verdana;fontSize=14;" vertex="1" parent="NYESxSJqRWlcTfdeuYpu-14">
          <mxGeometry y="372" width="510" height="26" as="geometry" />
        </mxCell>
        <mxCell id="NYESxSJqRWlcTfdeuYpu-41" value="- generatedBlockedCells(blockedCellCount : int) : void" style="text;strokeColor=none;fillColor=none;align=left;verticalAlign=top;spacingLeft=4;spacingRight=4;overflow=hidden;rotatable=0;points=[[0,0.5],[1,0.5]];portConstraint=eastwest;fontFamily=Verdana;fontSize=14;" vertex="1" parent="NYESxSJqRWlcTfdeuYpu-14">
          <mxGeometry y="398" width="510" height="26" as="geometry" />
        </mxCell>
        <mxCell id="NYESxSJqRWlcTfdeuYpu-27" value="+ addMove(row : int, col : int, symbol : char) : void" style="text;strokeColor=none;fillColor=none;align=left;verticalAlign=top;spacingLeft=4;spacingRight=4;overflow=hidden;rotatable=0;points=[[0,0.5],[1,0.5]];portConstraint=eastwest;fontFamily=Verdana;fontSize=14;" vertex="1" parent="NYESxSJqRWlcTfdeuYpu-14">
          <mxGeometry y="424" width="510" height="28" as="geometry" />
        </mxCell>
        <mxCell id="NYESxSJqRWlcTfdeuYpu-43" value="+ undoMove(row : int, col : int) : void" style="text;strokeColor=none;fillColor=none;align=left;verticalAlign=top;spacingLeft=4;spacingRight=4;overflow=hidden;rotatable=0;points=[[0,0.5],[1,0.5]];portConstraint=eastwest;fontFamily=Verdana;fontSize=14;" vertex="1" parent="NYESxSJqRWlcTfdeuYpu-14">
          <mxGeometry y="452" width="510" height="28" as="geometry" />
        </mxCell>
        <mxCell id="NYESxSJqRWlcTfdeuYpu-44" value="+ undoMove(move : Move) : void" style="text;strokeColor=none;fillColor=none;align=left;verticalAlign=top;spacingLeft=4;spacingRight=4;overflow=hidden;rotatable=0;points=[[0,0.5],[1,0.5]];portConstraint=eastwest;fontFamily=Verdana;fontSize=14;" vertex="1" parent="NYESxSJqRWlcTfdeuYpu-14">
          <mxGeometry y="480" width="510" height="26" as="geometry" />
        </mxCell>
        <mxCell id="NYESxSJqRWlcTfdeuYpu-42" value="- incrSymbolCount(row : int, col : int, symbol : char) : void" style="text;strokeColor=none;fillColor=none;align=left;verticalAlign=top;spacingLeft=4;spacingRight=4;overflow=hidden;rotatable=0;points=[[0,0.5],[1,0.5]];portConstraint=eastwest;fontFamily=Verdana;fontSize=14;" vertex="1" parent="NYESxSJqRWlcTfdeuYpu-14">
          <mxGeometry y="506" width="510" height="26" as="geometry" />
        </mxCell>
        <mxCell id="NYESxSJqRWlcTfdeuYpu-46" value="- decrSymbolCount(row : int, col : int, symbol : char) : void" style="text;strokeColor=none;fillColor=none;align=left;verticalAlign=top;spacingLeft=4;spacingRight=4;overflow=hidden;rotatable=0;points=[[0,0.5],[1,0.5]];portConstraint=eastwest;fontFamily=Verdana;fontSize=14;" vertex="1" parent="NYESxSJqRWlcTfdeuYpu-14">
          <mxGeometry y="532" width="510" height="26" as="geometry" />
        </mxCell>
        <mxCell id="NYESxSJqRWlcTfdeuYpu-47" value="- incrColWiseSymbolCount(row : int, col : int, symbol : char) : void" style="text;strokeColor=none;fillColor=none;align=left;verticalAlign=top;spacingLeft=4;spacingRight=4;overflow=hidden;rotatable=0;points=[[0,0.5],[1,0.5]];portConstraint=eastwest;fontFamily=Verdana;fontSize=14;" vertex="1" parent="NYESxSJqRWlcTfdeuYpu-14">
          <mxGeometry y="558" width="510" height="26" as="geometry" />
        </mxCell>
        <mxCell id="NYESxSJqRWlcTfdeuYpu-45" value="- incrRowWiseCount(row : int, col : int, symbol : char) : void" style="text;strokeColor=none;fillColor=none;align=left;verticalAlign=top;spacingLeft=4;spacingRight=4;overflow=hidden;rotatable=0;points=[[0,0.5],[1,0.5]];portConstraint=eastwest;fontFamily=Verdana;fontSize=14;" vertex="1" parent="NYESxSJqRWlcTfdeuYpu-14">
          <mxGeometry y="584" width="510" height="26" as="geometry" />
        </mxCell>
        <mxCell id="NYESxSJqRWlcTfdeuYpu-48" value="- incrPosDiagWiseCount(row : int, col : int, symbol : char) : void" style="text;strokeColor=none;fillColor=none;align=left;verticalAlign=top;spacingLeft=4;spacingRight=4;overflow=hidden;rotatable=0;points=[[0,0.5],[1,0.5]];portConstraint=eastwest;fontFamily=Verdana;fontSize=14;" vertex="1" parent="NYESxSJqRWlcTfdeuYpu-14">
          <mxGeometry y="610" width="510" height="26" as="geometry" />
        </mxCell>
        <mxCell id="NYESxSJqRWlcTfdeuYpu-49" value="- incrNegDiagWiseCount(row : int, col : int, symbol : char) : void" style="text;strokeColor=none;fillColor=none;align=left;verticalAlign=top;spacingLeft=4;spacingRight=4;overflow=hidden;rotatable=0;points=[[0,0.5],[1,0.5]];portConstraint=eastwest;fontFamily=Verdana;fontSize=14;" vertex="1" parent="NYESxSJqRWlcTfdeuYpu-14">
          <mxGeometry y="636" width="510" height="26" as="geometry" />
        </mxCell>
        <mxCell id="NYESxSJqRWlcTfdeuYpu-50" value="+ isFreeCell(row : int, col : int) : void" style="text;strokeColor=none;fillColor=none;align=left;verticalAlign=top;spacingLeft=4;spacingRight=4;overflow=hidden;rotatable=0;points=[[0,0.5],[1,0.5]];portConstraint=eastwest;fontFamily=Verdana;fontSize=14;" vertex="1" parent="NYESxSJqRWlcTfdeuYpu-14">
          <mxGeometry y="662" width="510" height="26" as="geometry" />
        </mxCell>
        <mxCell id="NYESxSJqRWlcTfdeuYpu-51" value="+ printBoard() : void" style="text;strokeColor=none;fillColor=none;align=left;verticalAlign=top;spacingLeft=4;spacingRight=4;overflow=hidden;rotatable=0;points=[[0,0.5],[1,0.5]];portConstraint=eastwest;fontFamily=Verdana;fontSize=14;" vertex="1" parent="NYESxSJqRWlcTfdeuYpu-14">
          <mxGeometry y="688" width="510" height="26" as="geometry" />
        </mxCell>
        <mxCell id="NYESxSJqRWlcTfdeuYpu-52" value="Game" style="swimlane;fontStyle=1;align=center;verticalAlign=top;childLayout=stackLayout;horizontal=1;startSize=26;horizontalStack=0;resizeParent=1;resizeParentMax=0;resizeLast=0;collapsible=1;marginBottom=0;fontFamily=Verdana;fontSize=14;" vertex="1" parent="WIyWlLk6GJQsqaUBKTNV-1">
          <mxGeometry x="-520" y="40" width="790" height="372" as="geometry" />
        </mxCell>
        <mxCell id="NYESxSJqRWlcTfdeuYpu-53" value="- players : List&lt;Players&gt;" style="text;strokeColor=none;fillColor=none;align=left;verticalAlign=top;spacingLeft=4;spacingRight=4;overflow=hidden;rotatable=0;points=[[0,0.5],[1,0.5]];portConstraint=eastwest;fontSize=14;fontFamily=Verdana;" vertex="1" parent="NYESxSJqRWlcTfdeuYpu-52">
          <mxGeometry y="26" width="790" height="26" as="geometry" />
        </mxCell>
        <mxCell id="NYESxSJqRWlcTfdeuYpu-60" value="- board : Board" style="text;strokeColor=none;fillColor=none;align=left;verticalAlign=top;spacingLeft=4;spacingRight=4;overflow=hidden;rotatable=0;points=[[0,0.5],[1,0.5]];portConstraint=eastwest;fontSize=14;fontFamily=Verdana;" vertex="1" parent="NYESxSJqRWlcTfdeuYpu-52">
          <mxGeometry y="52" width="790" height="26" as="geometry" />
        </mxCell>
        <mxCell id="NYESxSJqRWlcTfdeuYpu-61" value="- moves : List&lt;Move&gt;" style="text;strokeColor=none;fillColor=none;align=left;verticalAlign=top;spacingLeft=4;spacingRight=4;overflow=hidden;rotatable=0;points=[[0,0.5],[1,0.5]];portConstraint=eastwest;fontSize=14;fontFamily=Verdana;" vertex="1" parent="NYESxSJqRWlcTfdeuYpu-52">
          <mxGeometry y="78" width="790" height="26" as="geometry" />
        </mxCell>
        <mxCell id="NYESxSJqRWlcTfdeuYpu-62" value="- playSequence : List&lt;Integer&gt;" style="text;strokeColor=none;fillColor=none;align=left;verticalAlign=top;spacingLeft=4;spacingRight=4;overflow=hidden;rotatable=0;points=[[0,0.5],[1,0.5]];portConstraint=eastwest;fontSize=14;fontFamily=Verdana;" vertex="1" parent="NYESxSJqRWlcTfdeuYpu-52">
          <mxGeometry y="104" width="790" height="26" as="geometry" />
        </mxCell>
        <mxCell id="NYESxSJqRWlcTfdeuYpu-63" value="- winner : Player" style="text;strokeColor=none;fillColor=none;align=left;verticalAlign=top;spacingLeft=4;spacingRight=4;overflow=hidden;rotatable=0;points=[[0,0.5],[1,0.5]];portConstraint=eastwest;fontSize=14;fontFamily=Verdana;" vertex="1" parent="NYESxSJqRWlcTfdeuYpu-52">
          <mxGeometry y="130" width="790" height="26" as="geometry" />
        </mxCell>
        <mxCell id="NYESxSJqRWlcTfdeuYpu-64" value="- gameStatus : GameStatus" style="text;strokeColor=none;fillColor=none;align=left;verticalAlign=top;spacingLeft=4;spacingRight=4;overflow=hidden;rotatable=0;points=[[0,0.5],[1,0.5]];portConstraint=eastwest;fontSize=14;fontFamily=Verdana;" vertex="1" parent="NYESxSJqRWlcTfdeuYpu-52">
          <mxGeometry y="156" width="790" height="26" as="geometry" />
        </mxCell>
        <mxCell id="NYESxSJqRWlcTfdeuYpu-54" value="" style="line;strokeWidth=1;fillColor=none;align=left;verticalAlign=middle;spacingTop=-1;spacingLeft=3;spacingRight=3;rotatable=0;labelPosition=right;points=[];portConstraint=eastwest;strokeColor=inherit;fontFamily=Verdana;fontSize=14;" vertex="1" parent="NYESxSJqRWlcTfdeuYpu-52">
          <mxGeometry y="182" width="790" height="8" as="geometry" />
        </mxCell>
        <mxCell id="NYESxSJqRWlcTfdeuYpu-56" value="+ Game(dimension : int, player : List&lt;Player&gt;, countBlockedCell : int, winningStrategy : WinningStrategy)" style="text;strokeColor=none;fillColor=none;align=left;verticalAlign=top;spacingLeft=4;spacingRight=4;overflow=hidden;rotatable=0;points=[[0,0.5],[1,0.5]];portConstraint=eastwest;fontSize=14;fontFamily=Verdana;" vertex="1" parent="NYESxSJqRWlcTfdeuYpu-52">
          <mxGeometry y="190" width="790" height="26" as="geometry" />
        </mxCell>
        <mxCell id="NYESxSJqRWlcTfdeuYpu-57" value="+ start() : void" style="text;strokeColor=none;fillColor=none;align=left;verticalAlign=top;spacingLeft=4;spacingRight=4;overflow=hidden;rotatable=0;points=[[0,0.5],[1,0.5]];portConstraint=eastwest;fontSize=14;fontFamily=Verdana;" vertex="1" parent="NYESxSJqRWlcTfdeuYpu-52">
          <mxGeometry y="216" width="790" height="26" as="geometry" />
        </mxCell>
        <mxCell id="NYESxSJqRWlcTfdeuYpu-55" value="+ getCurrentGameStatus(): GameStatus" style="text;strokeColor=none;fillColor=none;align=left;verticalAlign=top;spacingLeft=4;spacingRight=4;overflow=hidden;rotatable=0;points=[[0,0.5],[1,0.5]];portConstraint=eastwest;fontSize=14;fontFamily=Verdana;" vertex="1" parent="NYESxSJqRWlcTfdeuYpu-52">
          <mxGeometry y="242" width="790" height="26" as="geometry" />
        </mxCell>
        <mxCell id="NYESxSJqRWlcTfdeuYpu-65" value="+ createPlaySequence(): void" style="text;strokeColor=none;fillColor=none;align=left;verticalAlign=top;spacingLeft=4;spacingRight=4;overflow=hidden;rotatable=0;points=[[0,0.5],[1,0.5]];portConstraint=eastwest;fontSize=14;fontFamily=Verdana;" vertex="1" parent="NYESxSJqRWlcTfdeuYpu-52">
          <mxGeometry y="268" width="790" height="26" as="geometry" />
        </mxCell>
        <mxCell id="NYESxSJqRWlcTfdeuYpu-66" value="+ undo(): void" style="text;strokeColor=none;fillColor=none;align=left;verticalAlign=top;spacingLeft=4;spacingRight=4;overflow=hidden;rotatable=0;points=[[0,0.5],[1,0.5]];portConstraint=eastwest;fontSize=14;fontFamily=Verdana;" vertex="1" parent="NYESxSJqRWlcTfdeuYpu-52">
          <mxGeometry y="294" width="790" height="26" as="geometry" />
        </mxCell>
        <mxCell id="NYESxSJqRWlcTfdeuYpu-67" value="+ reconstructBoard(): void" style="text;strokeColor=none;fillColor=none;align=left;verticalAlign=top;spacingLeft=4;spacingRight=4;overflow=hidden;rotatable=0;points=[[0,0.5],[1,0.5]];portConstraint=eastwest;fontSize=14;fontFamily=Verdana;" vertex="1" parent="NYESxSJqRWlcTfdeuYpu-52">
          <mxGeometry y="320" width="790" height="26" as="geometry" />
        </mxCell>
        <mxCell id="NYESxSJqRWlcTfdeuYpu-68" value="+ resetBoard(): void" style="text;strokeColor=none;fillColor=none;align=left;verticalAlign=top;spacingLeft=4;spacingRight=4;overflow=hidden;rotatable=0;points=[[0,0.5],[1,0.5]];portConstraint=eastwest;fontSize=14;fontFamily=Verdana;" vertex="1" parent="NYESxSJqRWlcTfdeuYpu-52">
          <mxGeometry y="346" width="790" height="26" as="geometry" />
        </mxCell>
        <mxCell id="NYESxSJqRWlcTfdeuYpu-69" value="GameDriver" style="swimlane;fontStyle=1;align=center;verticalAlign=top;childLayout=stackLayout;horizontal=1;startSize=26;horizontalStack=0;resizeParent=1;resizeParentMax=0;resizeLast=0;collapsible=1;marginBottom=0;fontFamily=Verdana;fontSize=14;" vertex="1" parent="WIyWlLk6GJQsqaUBKTNV-1">
          <mxGeometry x="-1380" y="40" width="800" height="138" as="geometry" />
        </mxCell>
        <mxCell id="NYESxSJqRWlcTfdeuYpu-71" value="" style="line;strokeWidth=1;fillColor=none;align=left;verticalAlign=middle;spacingTop=-1;spacingLeft=3;spacingRight=3;rotatable=0;labelPosition=right;points=[];portConstraint=eastwest;strokeColor=inherit;fontFamily=Verdana;fontSize=14;" vertex="1" parent="NYESxSJqRWlcTfdeuYpu-69">
          <mxGeometry y="26" width="800" height="8" as="geometry" />
        </mxCell>
        <mxCell id="NYESxSJqRWlcTfdeuYpu-70" value="+ startGame : void" style="text;strokeColor=none;fillColor=none;align=left;verticalAlign=top;spacingLeft=4;spacingRight=4;overflow=hidden;rotatable=0;points=[[0,0.5],[1,0.5]];portConstraint=eastwest;fontSize=14;fontFamily=Verdana;" vertex="1" parent="NYESxSJqRWlcTfdeuYpu-69">
          <mxGeometry y="34" width="800" height="26" as="geometry" />
        </mxCell>
        <mxCell id="NYESxSJqRWlcTfdeuYpu-72" value="- addHumanPlayers(humanPlayerCount : int, players : List&lt;Player&gt;, takenSymbols : Set&lt;Character&gt;): void" style="text;strokeColor=none;fillColor=none;align=left;verticalAlign=top;spacingLeft=4;spacingRight=4;overflow=hidden;rotatable=0;points=[[0,0.5],[1,0.5]];portConstraint=eastwest;fontSize=14;fontFamily=Verdana;" vertex="1" parent="NYESxSJqRWlcTfdeuYpu-69">
          <mxGeometry y="60" width="800" height="26" as="geometry" />
        </mxCell>
        <mxCell id="NYESxSJqRWlcTfdeuYpu-73" value="- addBotPlayers(humanPlayerCount : int, players : List&lt;Player&gt;, takenSymbols : Set&lt;Character&gt;): void" style="text;strokeColor=none;fillColor=none;align=left;verticalAlign=top;spacingLeft=4;spacingRight=4;overflow=hidden;rotatable=0;points=[[0,0.5],[1,0.5]];portConstraint=eastwest;fontSize=14;fontFamily=Verdana;" vertex="1" parent="NYESxSJqRWlcTfdeuYpu-69">
          <mxGeometry y="86" width="800" height="26" as="geometry" />
        </mxCell>
        <mxCell id="NYESxSJqRWlcTfdeuYpu-74" value="+ method(type): type" style="text;strokeColor=none;fillColor=none;align=left;verticalAlign=top;spacingLeft=4;spacingRight=4;overflow=hidden;rotatable=0;points=[[0,0.5],[1,0.5]];portConstraint=eastwest;fontSize=14;fontFamily=Verdana;" vertex="1" parent="NYESxSJqRWlcTfdeuYpu-69">
          <mxGeometry y="112" width="800" height="26" as="geometry" />
        </mxCell>
        <mxCell id="NYESxSJqRWlcTfdeuYpu-79" value="&lt;p style=&quot;margin: 4px 0px 0px; text-align: center; font-size: 14px;&quot;&gt;&lt;i style=&quot;font-size: 14px;&quot;&gt;&amp;lt;&amp;lt;enumeration&amp;gt;&amp;gt;&lt;/i&gt;&lt;br style=&quot;font-size: 14px;&quot;&gt;&lt;b style=&quot;font-size: 14px;&quot;&gt;GameStatus&lt;/b&gt;&lt;/p&gt;&lt;hr style=&quot;font-size: 14px;&quot;&gt;&lt;p style=&quot;margin: 0px 0px 0px 4px; font-size: 14px;&quot;&gt;IN_PROGRESS&lt;br style=&quot;font-size: 14px;&quot;&gt;DRAW&lt;/p&gt;&lt;p style=&quot;margin: 0px 0px 0px 4px; font-size: 14px;&quot;&gt;FINISHED&lt;/p&gt;&lt;p style=&quot;margin: 0px 0px 0px 4px; font-size: 14px;&quot;&gt;&lt;br style=&quot;font-size: 14px;&quot;&gt;&lt;/p&gt;" style="verticalAlign=top;align=left;overflow=fill;fontSize=14;fontFamily=Helvetica;html=1;" vertex="1" parent="WIyWlLk6GJQsqaUBKTNV-1">
          <mxGeometry x="-1600" y="38" width="190" height="102" as="geometry" />
        </mxCell>
        <mxCell id="NYESxSJqRWlcTfdeuYpu-82" value="+ item: attribute" style="text;strokeColor=none;fillColor=none;align=left;verticalAlign=top;spacingLeft=4;spacingRight=4;overflow=hidden;rotatable=0;points=[[0,0.5],[1,0.5]];portConstraint=eastwest;fontSize=14;fontFamily=Verdana;" vertex="1" parent="WIyWlLk6GJQsqaUBKTNV-1">
          <mxGeometry x="-1530" y="460" width="130" height="26" as="geometry" />
        </mxCell>
        <mxCell id="NYESxSJqRWlcTfdeuYpu-83" value="&lt;&lt;abstract&gt;&gt;&#xa;Player" style="swimlane;fontStyle=1;align=center;verticalAlign=top;childLayout=stackLayout;horizontal=1;startSize=46;horizontalStack=0;resizeParent=1;resizeParentMax=0;resizeLast=0;collapsible=1;marginBottom=0;fontFamily=Verdana;fontSize=14;" vertex="1" parent="WIyWlLk6GJQsqaUBKTNV-1">
          <mxGeometry x="-1940" y="254" width="800" height="262" as="geometry" />
        </mxCell>
        <mxCell id="NYESxSJqRWlcTfdeuYpu-85" value="+ name : String" style="text;strokeColor=none;fillColor=none;align=left;verticalAlign=top;spacingLeft=4;spacingRight=4;overflow=hidden;rotatable=0;points=[[0,0.5],[1,0.5]];portConstraint=eastwest;fontSize=14;fontFamily=Verdana;" vertex="1" parent="NYESxSJqRWlcTfdeuYpu-83">
          <mxGeometry y="46" width="800" height="26" as="geometry" />
        </mxCell>
        <mxCell id="NYESxSJqRWlcTfdeuYpu-89" value="+ symbol : Character" style="text;strokeColor=none;fillColor=none;align=left;verticalAlign=top;spacingLeft=4;spacingRight=4;overflow=hidden;rotatable=0;points=[[0,0.5],[1,0.5]];portConstraint=eastwest;fontSize=14;fontFamily=Verdana;" vertex="1" parent="NYESxSJqRWlcTfdeuYpu-83">
          <mxGeometry y="72" width="800" height="26" as="geometry" />
        </mxCell>
        <mxCell id="NYESxSJqRWlcTfdeuYpu-84" value="" style="line;strokeWidth=1;fillColor=none;align=left;verticalAlign=middle;spacingTop=-1;spacingLeft=3;spacingRight=3;rotatable=0;labelPosition=right;points=[];portConstraint=eastwest;strokeColor=inherit;fontFamily=Verdana;fontSize=14;" vertex="1" parent="NYESxSJqRWlcTfdeuYpu-83">
          <mxGeometry y="98" width="800" height="8" as="geometry" />
        </mxCell>
        <mxCell id="NYESxSJqRWlcTfdeuYpu-86" value="+ Player(name : String, symbol : Character)" style="text;strokeColor=none;fillColor=none;align=left;verticalAlign=top;spacingLeft=4;spacingRight=4;overflow=hidden;rotatable=0;points=[[0,0.5],[1,0.5]];portConstraint=eastwest;fontSize=14;fontFamily=Verdana;" vertex="1" parent="NYESxSJqRWlcTfdeuYpu-83">
          <mxGeometry y="106" width="800" height="26" as="geometry" />
        </mxCell>
        <mxCell id="NYESxSJqRWlcTfdeuYpu-87" value="+ makeMove(board : Board) : Move" style="text;strokeColor=none;fillColor=none;align=left;verticalAlign=top;spacingLeft=4;spacingRight=4;overflow=hidden;rotatable=0;points=[[0,0.5],[1,0.5]];portConstraint=eastwest;fontSize=14;fontFamily=Verdana;" vertex="1" parent="NYESxSJqRWlcTfdeuYpu-83">
          <mxGeometry y="132" width="800" height="26" as="geometry" />
        </mxCell>
        <mxCell id="NYESxSJqRWlcTfdeuYpu-90" value="+ getName(): String" style="text;strokeColor=none;fillColor=none;align=left;verticalAlign=top;spacingLeft=4;spacingRight=4;overflow=hidden;rotatable=0;points=[[0,0.5],[1,0.5]];portConstraint=eastwest;fontSize=14;fontFamily=Verdana;" vertex="1" parent="NYESxSJqRWlcTfdeuYpu-83">
          <mxGeometry y="158" width="800" height="26" as="geometry" />
        </mxCell>
        <mxCell id="NYESxSJqRWlcTfdeuYpu-88" value="+ setName(name : String): void" style="text;strokeColor=none;fillColor=none;align=left;verticalAlign=top;spacingLeft=4;spacingRight=4;overflow=hidden;rotatable=0;points=[[0,0.5],[1,0.5]];portConstraint=eastwest;fontSize=14;fontFamily=Verdana;" vertex="1" parent="NYESxSJqRWlcTfdeuYpu-83">
          <mxGeometry y="184" width="800" height="26" as="geometry" />
        </mxCell>
        <mxCell id="NYESxSJqRWlcTfdeuYpu-91" value="+ getSymbol(): Character" style="text;strokeColor=none;fillColor=none;align=left;verticalAlign=top;spacingLeft=4;spacingRight=4;overflow=hidden;rotatable=0;points=[[0,0.5],[1,0.5]];portConstraint=eastwest;fontSize=14;fontFamily=Verdana;" vertex="1" parent="NYESxSJqRWlcTfdeuYpu-83">
          <mxGeometry y="210" width="800" height="26" as="geometry" />
        </mxCell>
        <mxCell id="NYESxSJqRWlcTfdeuYpu-92" value="+ toString(): String" style="text;strokeColor=none;fillColor=none;align=left;verticalAlign=top;spacingLeft=4;spacingRight=4;overflow=hidden;rotatable=0;points=[[0,0.5],[1,0.5]];portConstraint=eastwest;fontSize=14;fontFamily=Verdana;" vertex="1" parent="NYESxSJqRWlcTfdeuYpu-83">
          <mxGeometry y="236" width="800" height="26" as="geometry" />
        </mxCell>
      </root>
    </mxGraphModel>
  </diagram>
</mxfile>
